<svg width="24" height="24" viewBox="0 0 24 24" fill="none" xmlns="http://www.w3.org/2000/svg">
<g clip-path="url(#clip0_123_1028)">
<path d="M20.2135 8.98634L20.9202 9.51967L15.0402 17.293L10.3068 10.2397L6.08016 16.4263L3.08016 13.7597L4.00016 12.6997L5.80016 14.293L10.3068 7.70634L15.1002 14.8463L19.5402 8.97301C18.8675 8.9162 18.2134 8.72267 17.6181 8.40426C17.0229 8.08585 16.4988 7.64926 16.0782 7.12125C15.6575 6.59324 15.3491 5.98491 15.1717 5.33352C14.9944 4.68213 14.9519 4.00139 15.0468 3.33301H2.66683C2.31321 3.33301 1.97407 3.47348 1.72402 3.72353C1.47397 3.97358 1.3335 4.31272 1.3335 4.66634V19.333C1.3335 19.6866 1.47397 20.0258 1.72402 20.2758C1.97407 20.5259 2.31321 20.6663 2.66683 20.6663H21.3335C21.6871 20.6663 22.0263 20.5259 22.2763 20.2758C22.5264 20.0258 22.6668 19.6866 22.6668 19.333V8.22634C21.9298 8.69039 21.0838 8.95249 20.2135 8.98634Z" fill="#022D69"/>
<path d="M19.9998 7.33366C21.8408 7.33366 23.3332 5.84127 23.3332 4.00033C23.3332 2.15938 21.8408 0.666992 19.9998 0.666992C18.1589 0.666992 16.6665 2.15938 16.6665 4.00033C16.6665 5.84127 18.1589 7.33366 19.9998 7.33366Z" fill="#022D69"/>
</g>
<defs>
<clipPath id="clip0_123_1028">
<rect width="24" height="24" fill="white"/>
</clipPath>
</defs>
</svg>
