<svg width="355" height="64" viewBox="0 0 355 64" fill="none" xmlns="http://www.w3.org/2000/svg">
<rect x="0.5" y="0.5" width="354" height="63" rx="31.5" stroke="#2E2E2E" stroke-opacity="0.2"/>
<path d="M23.5 30.5L43 23L40 39.5L29.545 33.797L41.5 24.5L27.691 32.7845L23.5 30.5ZM29.5 42.5V35.399L34 38L29.5 42.5Z" fill="#022D69"/>
<path d="M71.332 32.4727L70.0254 28.6699L68.6367 32.4727H71.332ZM69.416 27.3926H70.7344L73.8574 36H72.5801L71.707 33.4219H68.3027L67.3711 36H66.1758L69.416 27.3926ZM75.4453 32.9355C75.4453 33.6074 75.5879 34.1699 75.873 34.623C76.1582 35.0762 76.6152 35.3027 77.2441 35.3027C77.7324 35.3027 78.1328 35.0938 78.4453 34.6758C78.7617 34.2539 78.9199 33.6504 78.9199 32.8652C78.9199 32.0723 78.7578 31.4863 78.4336 31.1074C78.1094 30.7246 77.709 30.5332 77.2324 30.5332C76.7012 30.5332 76.2695 30.7363 75.9375 31.1426C75.6094 31.5488 75.4453 32.1465 75.4453 32.9355ZM77.0332 29.6133C77.5137 29.6133 77.916 29.7148 78.2402 29.918C78.4277 30.0352 78.6406 30.2402 78.8789 30.5332V27.3633H79.8926V36H78.9434V35.127C78.6973 35.5137 78.4062 35.793 78.0703 35.9648C77.7344 36.1367 77.3496 36.2227 76.916 36.2227C76.2168 36.2227 75.6113 35.9297 75.0996 35.3438C74.5879 34.7539 74.332 33.9707 74.332 32.9941C74.332 32.0801 74.5645 31.2891 75.0293 30.6211C75.498 29.9492 76.166 29.6133 77.0332 29.6133ZM81.9727 29.7246L83.6484 34.834L85.4004 29.7246H86.5547L84.1875 36H83.0625L80.748 29.7246H81.9727ZM90.0703 29.584C90.5156 29.584 90.9473 29.6895 91.3652 29.9004C91.7832 30.1074 92.1016 30.377 92.3203 30.709C92.5312 31.0254 92.6719 31.3945 92.7422 31.8164C92.8047 32.1055 92.8359 32.5664 92.8359 33.1992H88.2363C88.2559 33.8359 88.4062 34.3477 88.6875 34.7344C88.9688 35.1172 89.4043 35.3086 89.9941 35.3086C90.5449 35.3086 90.9844 35.127 91.3125 34.7637C91.5 34.5527 91.6328 34.3086 91.7109 34.0312H92.748C92.7207 34.2617 92.6289 34.5195 92.4727 34.8047C92.3203 35.0859 92.1484 35.3164 91.957 35.4961C91.6367 35.8086 91.2402 36.0195 90.7676 36.1289C90.5137 36.1914 90.2266 36.2227 89.9062 36.2227C89.125 36.2227 88.4629 35.9395 87.9199 35.373C87.377 34.8027 87.1055 34.0059 87.1055 32.9824C87.1055 31.9746 87.3789 31.1562 87.9258 30.5273C88.4727 29.8984 89.1875 29.584 90.0703 29.584ZM91.752 32.3613C91.709 31.9043 91.6094 31.5391 91.4531 31.2656C91.1641 30.7578 90.6816 30.5039 90.0059 30.5039C89.5215 30.5039 89.1152 30.6797 88.7871 31.0312C88.459 31.3789 88.2852 31.8223 88.2656 32.3613H91.752ZM94.166 29.7246H95.168V30.8086C95.25 30.5977 95.4512 30.3418 95.7715 30.041C96.0918 29.7363 96.4609 29.584 96.8789 29.584C96.8984 29.584 96.9316 29.5859 96.9785 29.5898C97.0254 29.5938 97.1055 29.6016 97.2188 29.6133V30.7266C97.1562 30.7148 97.0977 30.707 97.043 30.7031C96.9922 30.6992 96.9355 30.6973 96.873 30.6973C96.3418 30.6973 95.9336 30.8691 95.6484 31.2129C95.3633 31.5527 95.2207 31.9453 95.2207 32.3906V36H94.166V29.7246ZM98.3438 27.9727H99.4102V29.7246H100.412V30.5859H99.4102V34.6816C99.4102 34.9004 99.4844 35.0469 99.6328 35.1211C99.7148 35.1641 99.8516 35.1855 100.043 35.1855C100.094 35.1855 100.148 35.1855 100.207 35.1855C100.266 35.1816 100.334 35.1758 100.412 35.168V36C100.291 36.0352 100.164 36.0605 100.031 36.0762C99.9023 36.0918 99.7617 36.0996 99.6094 36.0996C99.1172 36.0996 98.7832 35.9746 98.6074 35.7246C98.4316 35.4707 98.3438 35.1426 98.3438 34.7402V30.5859H97.4941V29.7246H98.3438V27.9727ZM101.473 29.7539H102.545V36H101.473V29.7539ZM101.473 27.3926H102.545V28.5879H101.473V27.3926ZM104.771 34.0312C104.803 34.3828 104.891 34.6523 105.035 34.8398C105.301 35.1797 105.762 35.3496 106.418 35.3496C106.809 35.3496 107.152 35.2656 107.449 35.0977C107.746 34.9258 107.895 34.6621 107.895 34.3066C107.895 34.0371 107.775 33.832 107.537 33.6914C107.385 33.6055 107.084 33.5059 106.635 33.3926L105.797 33.1816C105.262 33.0488 104.867 32.9004 104.613 32.7363C104.16 32.4512 103.934 32.0566 103.934 31.5527C103.934 30.959 104.146 30.4785 104.572 30.1113C105.002 29.7441 105.578 29.5605 106.301 29.5605C107.246 29.5605 107.928 29.8379 108.346 30.3926C108.607 30.7441 108.734 31.123 108.727 31.5293H107.73C107.711 31.291 107.627 31.0742 107.479 30.8789C107.236 30.6016 106.816 30.4629 106.219 30.4629C105.82 30.4629 105.518 30.5391 105.311 30.6914C105.107 30.8438 105.006 31.0449 105.006 31.2949C105.006 31.5684 105.141 31.7871 105.41 31.9512C105.566 32.0488 105.797 32.1348 106.102 32.209L106.799 32.3789C107.557 32.5625 108.064 32.7402 108.322 32.9121C108.732 33.1816 108.938 33.6055 108.938 34.1836C108.938 34.7422 108.725 35.2246 108.299 35.6309C107.877 36.0371 107.232 36.2402 106.365 36.2402C105.432 36.2402 104.77 36.0293 104.379 35.6074C103.992 35.1816 103.785 34.6562 103.758 34.0312H104.771ZM110.145 29.7539H111.217V36H110.145V29.7539ZM110.145 27.3926H111.217V28.5879H110.145V27.3926ZM112.816 29.7246H113.818V30.6152C114.115 30.248 114.43 29.9844 114.762 29.8242C115.094 29.6641 115.463 29.584 115.869 29.584C116.76 29.584 117.361 29.8945 117.674 30.5156C117.846 30.8555 117.932 31.3418 117.932 31.9746V36H116.859V32.0449C116.859 31.6621 116.803 31.3535 116.689 31.1191C116.502 30.7285 116.162 30.5332 115.67 30.5332C115.42 30.5332 115.215 30.5586 115.055 30.6094C114.766 30.6953 114.512 30.8672 114.293 31.125C114.117 31.332 114.002 31.5469 113.947 31.7695C113.896 31.9883 113.871 32.3027 113.871 32.7129V36H112.816V29.7246ZM121.711 29.6133C122.203 29.6133 122.633 29.7344 123 29.9766C123.199 30.1133 123.402 30.3125 123.609 30.5742V29.7832H124.582V35.4902C124.582 36.2871 124.465 36.916 124.23 37.377C123.793 38.2285 122.967 38.6543 121.752 38.6543C121.076 38.6543 120.508 38.502 120.047 38.1973C119.586 37.8965 119.328 37.4238 119.273 36.7793H120.346C120.396 37.0605 120.498 37.2773 120.65 37.4297C120.889 37.6641 121.264 37.7812 121.775 37.7812C122.584 37.7812 123.113 37.4961 123.363 36.9258C123.512 36.5898 123.58 35.9902 123.568 35.127C123.357 35.4473 123.104 35.6855 122.807 35.8418C122.51 35.998 122.117 36.0762 121.629 36.0762C120.949 36.0762 120.354 35.8359 119.842 35.3555C119.334 34.8711 119.08 34.0723 119.08 32.959C119.08 31.9082 119.336 31.0879 119.848 30.498C120.363 29.9082 120.984 29.6133 121.711 29.6133ZM123.609 32.8359C123.609 32.0586 123.449 31.4824 123.129 31.1074C122.809 30.7324 122.4 30.5449 121.904 30.5449C121.162 30.5449 120.654 30.8926 120.381 31.5879C120.236 31.959 120.164 32.4453 120.164 33.0469C120.164 33.7539 120.307 34.293 120.592 34.6641C120.881 35.0312 121.268 35.2148 121.752 35.2148C122.51 35.2148 123.043 34.873 123.352 34.1895C123.523 33.8027 123.609 33.3516 123.609 32.8359ZM133.418 32.4727L132.111 28.6699L130.723 32.4727H133.418ZM131.502 27.3926H132.82L135.943 36H134.666L133.793 33.4219H130.389L129.457 36H128.262L131.502 27.3926ZM136.863 29.7246H137.865V30.6152C138.162 30.248 138.477 29.9844 138.809 29.8242C139.141 29.6641 139.51 29.584 139.916 29.584C140.807 29.584 141.408 29.8945 141.721 30.5156C141.893 30.8555 141.979 31.3418 141.979 31.9746V36H140.906V32.0449C140.906 31.6621 140.85 31.3535 140.736 31.1191C140.549 30.7285 140.209 30.5332 139.717 30.5332C139.467 30.5332 139.262 30.5586 139.102 30.6094C138.812 30.6953 138.559 30.8672 138.34 31.125C138.164 31.332 138.049 31.5469 137.994 31.7695C137.943 31.9883 137.918 32.3027 137.918 32.7129V36H136.863V29.7246ZM144.352 34.3301C144.352 34.6348 144.463 34.875 144.686 35.0508C144.908 35.2266 145.172 35.3145 145.477 35.3145C145.848 35.3145 146.207 35.2285 146.555 35.0566C147.141 34.7715 147.434 34.3047 147.434 33.6562V32.8066C147.305 32.8887 147.139 32.957 146.936 33.0117C146.732 33.0664 146.533 33.1055 146.338 33.1289L145.699 33.2109C145.316 33.2617 145.029 33.3418 144.838 33.4512C144.514 33.6348 144.352 33.9277 144.352 34.3301ZM146.906 32.1973C147.148 32.166 147.311 32.0645 147.393 31.8926C147.439 31.7988 147.463 31.6641 147.463 31.4883C147.463 31.1289 147.334 30.8691 147.076 30.709C146.822 30.5449 146.457 30.4629 145.98 30.4629C145.43 30.4629 145.039 30.6113 144.809 30.9082C144.68 31.0723 144.596 31.3164 144.557 31.6406H143.572C143.592 30.8672 143.842 30.3301 144.322 30.0293C144.807 29.7246 145.367 29.5723 146.004 29.5723C146.742 29.5723 147.342 29.7129 147.803 29.9941C148.26 30.2754 148.488 30.7129 148.488 31.3066V34.9219C148.488 35.0312 148.51 35.1191 148.553 35.1855C148.6 35.252 148.695 35.2852 148.84 35.2852C148.887 35.2852 148.939 35.2832 148.998 35.2793C149.057 35.2715 149.119 35.2617 149.186 35.25V36.0293C149.021 36.0762 148.896 36.1055 148.811 36.1172C148.725 36.1289 148.607 36.1348 148.459 36.1348C148.096 36.1348 147.832 36.0059 147.668 35.748C147.582 35.6113 147.521 35.418 147.486 35.168C147.271 35.4492 146.963 35.6934 146.561 35.9004C146.158 36.1074 145.715 36.2109 145.23 36.2109C144.648 36.2109 144.172 36.0352 143.801 35.6836C143.434 35.3281 143.25 34.8848 143.25 34.3535C143.25 33.7715 143.432 33.3203 143.795 33C144.158 32.6797 144.635 32.4824 145.225 32.4082L146.906 32.1973ZM150.252 27.3926H151.307V36H150.252V27.3926ZM156.814 29.7246H157.98C157.832 30.127 157.502 31.0449 156.99 32.4785C156.607 33.5566 156.287 34.4355 156.029 35.1152C155.42 36.7168 154.99 37.6934 154.74 38.0449C154.49 38.3965 154.061 38.5723 153.451 38.5723C153.303 38.5723 153.188 38.5664 153.105 38.5547C153.027 38.543 152.93 38.5215 152.812 38.4902V37.5293C152.996 37.5801 153.129 37.6113 153.211 37.623C153.293 37.6348 153.365 37.6406 153.428 37.6406C153.623 37.6406 153.766 37.6074 153.855 37.541C153.949 37.4785 154.027 37.4004 154.09 37.3066C154.109 37.2754 154.18 37.1152 154.301 36.8262C154.422 36.5371 154.51 36.3223 154.564 36.1816L152.244 29.7246H153.439L155.121 34.834L156.814 29.7246ZM159.105 27.9727H160.172V29.7246H161.174V30.5859H160.172V34.6816C160.172 34.9004 160.246 35.0469 160.395 35.1211C160.477 35.1641 160.613 35.1855 160.805 35.1855C160.855 35.1855 160.91 35.1855 160.969 35.1855C161.027 35.1816 161.096 35.1758 161.174 35.168V36C161.053 36.0352 160.926 36.0605 160.793 36.0762C160.664 36.0918 160.523 36.0996 160.371 36.0996C159.879 36.0996 159.545 35.9746 159.369 35.7246C159.193 35.4707 159.105 35.1426 159.105 34.7402V30.5859H158.256V29.7246H159.105V27.9727ZM162.234 29.7539H163.307V36H162.234V29.7539ZM162.234 27.3926H163.307V28.5879H162.234V27.3926ZM167.326 29.543C168.033 29.543 168.607 29.7148 169.049 30.0586C169.494 30.4023 169.762 30.9941 169.852 31.834H168.826C168.764 31.4473 168.621 31.127 168.398 30.873C168.176 30.6152 167.818 30.4863 167.326 30.4863C166.654 30.4863 166.174 30.8145 165.885 31.4707C165.697 31.8965 165.604 32.4219 165.604 33.0469C165.604 33.6758 165.736 34.2051 166.002 34.6348C166.268 35.0645 166.686 35.2793 167.256 35.2793C167.693 35.2793 168.039 35.1465 168.293 34.8809C168.551 34.6113 168.729 34.2441 168.826 33.7793H169.852C169.734 34.6113 169.441 35.2207 168.973 35.6074C168.504 35.9902 167.904 36.1816 167.174 36.1816C166.354 36.1816 165.699 35.8828 165.211 35.2852C164.723 34.6836 164.479 33.9336 164.479 33.0352C164.479 31.9336 164.746 31.0762 165.281 30.4629C165.816 29.8496 166.498 29.543 167.326 29.543ZM171.533 34.0312C171.564 34.3828 171.652 34.6523 171.797 34.8398C172.062 35.1797 172.523 35.3496 173.18 35.3496C173.57 35.3496 173.914 35.2656 174.211 35.0977C174.508 34.9258 174.656 34.6621 174.656 34.3066C174.656 34.0371 174.537 33.832 174.299 33.6914C174.146 33.6055 173.846 33.5059 173.396 33.3926L172.559 33.1816C172.023 33.0488 171.629 32.9004 171.375 32.7363C170.922 32.4512 170.695 32.0566 170.695 31.5527C170.695 30.959 170.908 30.4785 171.334 30.1113C171.764 29.7441 172.34 29.5605 173.062 29.5605C174.008 29.5605 174.689 29.8379 175.107 30.3926C175.369 30.7441 175.496 31.123 175.488 31.5293H174.492C174.473 31.291 174.389 31.0742 174.24 30.8789C173.998 30.6016 173.578 30.4629 172.98 30.4629C172.582 30.4629 172.279 30.5391 172.072 30.6914C171.869 30.8438 171.768 31.0449 171.768 31.2949C171.768 31.5684 171.902 31.7871 172.172 31.9512C172.328 32.0488 172.559 32.1348 172.863 32.209L173.561 32.3789C174.318 32.5625 174.826 32.7402 175.084 32.9121C175.494 33.1816 175.699 33.6055 175.699 34.1836C175.699 34.7422 175.486 35.2246 175.061 35.6309C174.639 36.0371 173.994 36.2402 173.127 36.2402C172.193 36.2402 171.531 36.0293 171.141 35.6074C170.754 35.1816 170.547 34.6562 170.52 34.0312H171.533Z" fill="black"/>
</svg>
