<svg width="24" height="24" viewBox="0 0 24 24" fill="none" xmlns="http://www.w3.org/2000/svg">
<path d="M18.8571 0H5.14286C2.30254 0 0 2.30254 0 5.14286V18.8571C0 21.6975 2.30254 24 5.14286 24H18.8571C21.6975 24 24 21.6975 24 18.8571V5.14286C24 2.30254 21.6975 0 18.8571 0Z" fill="url(#paint0_radial_140_546)"/>
<path d="M18.8571 0H5.14286C2.30254 0 0 2.30254 0 5.14286V18.8571C0 21.6975 2.30254 24 5.14286 24H18.8571C21.6975 24 24 21.6975 24 18.8571V5.14286C24 2.30254 21.6975 0 18.8571 0Z" fill="url(#paint1_radial_140_546)"/>
<path d="M18.8571 0H5.14286C2.30254 0 0 2.30254 0 5.14286V18.8571C0 21.6975 2.30254 24 5.14286 24H18.8571C21.6975 24 24 21.6975 24 18.8571V5.14286C24 2.30254 21.6975 0 18.8571 0Z" fill="url(#paint2_radial_140_546)"/>
<path d="M18.0001 7.28571C18.0001 7.99577 17.4245 8.57143 16.7144 8.57143C16.0044 8.57143 15.4287 7.99577 15.4287 7.28571C15.4287 6.57563 16.0044 6 16.7144 6C17.4245 6 18.0001 6.57563 18.0001 7.28571Z" fill="white"/>
<path fill-rule="evenodd" clip-rule="evenodd" d="M12.0006 16.2863C14.3675 16.2863 16.2863 14.3675 16.2863 12.0006C16.2863 9.63364 14.3675 7.71484 12.0006 7.71484C9.63364 7.71484 7.71484 9.63364 7.71484 12.0006C7.71484 14.3675 9.63364 16.2863 12.0006 16.2863ZM12.0006 14.572C13.4208 14.572 14.572 13.4208 14.572 12.0006C14.572 10.5804 13.4208 9.42913 12.0006 9.42913C10.5804 9.42913 9.42913 10.5804 9.42913 12.0006C9.42913 13.4208 10.5804 14.572 12.0006 14.572Z" fill="white"/>
<path fill-rule="evenodd" clip-rule="evenodd" d="M3.42871 11.6573C3.42871 8.77703 3.42871 7.33685 3.98925 6.23676C4.48231 5.26907 5.26907 4.48231 6.23676 3.98925C7.33685 3.42871 8.77703 3.42871 11.6573 3.42871H12.343C15.2233 3.42871 16.6634 3.42871 17.7635 3.98925C18.7312 4.48231 19.518 5.26907 20.011 6.23676C20.5716 7.33685 20.5716 8.77703 20.5716 11.6573V12.343C20.5716 15.2233 20.5716 16.6634 20.011 17.7635C19.518 18.7312 18.7312 19.518 17.7635 20.011C16.6634 20.5716 15.2233 20.5716 12.343 20.5716H11.6573C8.77703 20.5716 7.33685 20.5716 6.23676 20.011C5.26907 19.518 4.48231 18.7312 3.98925 17.7635C3.42871 16.6634 3.42871 15.2233 3.42871 12.343V11.6573ZM11.6573 5.143H12.343C13.8115 5.143 14.8096 5.14433 15.5812 5.20737C16.3328 5.26877 16.7172 5.38007 16.9853 5.51669C17.6304 5.8454 18.1549 6.3699 18.4836 7.015C18.6202 7.28311 18.7315 7.66745 18.7929 8.41908C18.8559 9.19068 18.8573 10.1888 18.8573 11.6573V12.343C18.8573 13.8115 18.8559 14.8096 18.7929 15.5812C18.7315 16.3328 18.6202 16.7172 18.4836 16.9853C18.1549 17.6304 17.6304 18.1549 16.9853 18.4836C16.7172 18.6202 16.3328 18.7315 15.5812 18.7929C14.8096 18.8559 13.8115 18.8573 12.343 18.8573H11.6573C10.1888 18.8573 9.19068 18.8559 8.41908 18.7929C7.66745 18.7315 7.28311 18.6202 7.015 18.4836C6.3699 18.1549 5.8454 17.6304 5.51669 16.9853C5.38007 16.7172 5.26877 16.3328 5.20737 15.5812C5.14433 14.8096 5.143 13.8115 5.143 12.343V11.6573C5.143 10.1888 5.14433 9.19068 5.20737 8.41908C5.26877 7.66745 5.38007 7.28311 5.51669 7.015C5.8454 6.3699 6.3699 5.8454 7.015 5.51669C7.28311 5.38007 7.66745 5.26877 8.41908 5.20737C9.19068 5.14433 10.1888 5.143 11.6573 5.143Z" fill="white"/>
<defs>
<radialGradient id="paint0_radial_140_546" cx="0" cy="0" r="1" gradientUnits="userSpaceOnUse" gradientTransform="translate(8.57143 18) rotate(-55.3758) scale(21.8739)">
<stop stop-color="#B13589"/>
<stop offset="0.79309" stop-color="#C62F94"/>
<stop offset="1" stop-color="#8A3AC8"/>
</radialGradient>
<radialGradient id="paint1_radial_140_546" cx="0" cy="0" r="1" gradientUnits="userSpaceOnUse" gradientTransform="translate(7.71429 24.8571) rotate(-65.1363) scale(19.3665)">
<stop stop-color="#E0E8B7"/>
<stop offset="0.444662" stop-color="#FB8A2E"/>
<stop offset="0.71474" stop-color="#E2425C"/>
<stop offset="1" stop-color="#E2425C" stop-opacity="0"/>
</radialGradient>
<radialGradient id="paint2_radial_140_546" cx="0" cy="0" r="1" gradientUnits="userSpaceOnUse" gradientTransform="translate(-1.28571 0.857143) rotate(-8.1301) scale(33.3351 7.13002)">
<stop offset="0.156701" stop-color="#406ADC"/>
<stop offset="0.467799" stop-color="#6A45BE"/>
<stop offset="1" stop-color="#6A45BE" stop-opacity="0"/>
</radialGradient>
</defs>
</svg>
