<svg width="22" height="23" viewBox="0 0 22 23" fill="none" xmlns="http://www.w3.org/2000/svg">
<path d="M5.33868 3.82959L11 9.49093L16.632 3.85893C16.7564 3.72651 16.9063 3.62059 17.0726 3.5475C17.239 3.47441 17.4183 3.43567 17.6 3.43359C17.989 3.43359 18.362 3.58812 18.6371 3.86317C18.9122 4.13822 19.0667 4.51128 19.0667 4.90026C19.0701 5.08008 19.0367 5.2587 18.9686 5.42515C18.9005 5.59161 18.7991 5.7424 18.6707 5.86826L12.9653 11.5003L18.6707 17.2056C18.9124 17.4421 19.0542 17.7623 19.0667 18.1003C19.0667 18.4892 18.9122 18.8623 18.6371 19.1374C18.362 19.4124 17.989 19.5669 17.6 19.5669C17.4131 19.5747 17.2266 19.5435 17.0524 19.4753C16.8782 19.4071 16.72 19.3035 16.588 19.1709L11 13.5096L5.35334 19.1563C5.22942 19.2843 5.08137 19.3864 4.91775 19.4569C4.75412 19.5274 4.57816 19.5648 4.40001 19.5669C4.01103 19.5669 3.63797 19.4124 3.36292 19.1374C3.08787 18.8623 2.93334 18.4892 2.93334 18.1003C2.92992 17.9204 2.96329 17.7418 3.03138 17.5754C3.09948 17.4089 3.20087 17.2581 3.32934 17.1323L9.03468 11.5003L3.32934 5.79493C3.08762 5.55844 2.94587 5.2382 2.93334 4.90026C2.93334 4.51128 3.08787 4.13822 3.36292 3.86317C3.63797 3.58812 4.01103 3.43359 4.40001 3.43359C4.75201 3.43799 5.08934 3.58026 5.33868 3.82959Z" fill="#022D69"/>
</svg>
