<svg width="18" height="18" viewBox="0 0 18 18" fill="none" xmlns="http://www.w3.org/2000/svg">
<path d="M16.23 12.2598L13.69 11.9698C13.3914 11.9347 13.0886 11.9678 12.8046 12.0665C12.5206 12.1652 12.2626 12.327 12.05 12.5398L10.21 14.3798C7.37144 12.9357 5.0641 10.6284 3.62004 7.78977L5.47004 5.93977C5.90004 5.50977 6.11004 4.90977 6.04004 4.29977L5.75004 1.77977C5.69356 1.29186 5.45951 0.841791 5.0925 0.515361C4.7255 0.188932 4.25121 0.00896555 3.76004 0.0097683H2.03004C0.900041 0.0097683 -0.0399593 0.949768 0.0300407 2.07977C0.560041 10.6198 7.39004 17.4398 15.92 17.9698C17.05 18.0398 17.99 17.0998 17.99 15.9698V14.2398C18 13.2298 17.24 12.3798 16.23 12.2598Z" fill="#022D69"/>
</svg>
