<svg width="24" height="24" viewBox="0 0 24 24" fill="none" xmlns="http://www.w3.org/2000/svg">
<g clip-path="url(#clip0_124_1387)">
<path d="M6.66667 6.66634C6.84348 6.66634 7.01305 6.5961 7.13807 6.47108C7.2631 6.34605 7.33333 6.17649 7.33333 5.99967V1.99967C7.33333 1.82286 7.2631 1.65329 7.13807 1.52827C7.01305 1.40325 6.84348 1.33301 6.66667 1.33301C6.48986 1.33301 6.32029 1.40325 6.19526 1.52827C6.07024 1.65329 6 1.82286 6 1.99967V5.99967C6 6.17649 6.07024 6.34605 6.19526 6.47108C6.32029 6.5961 6.48986 6.66634 6.66667 6.66634Z" fill="#022D69"/>
<path d="M19.9998 9.00008C18.6738 9.00008 17.402 8.47329 16.4643 7.53561C15.5266 6.59793 14.9998 5.32616 14.9998 4.00008H8.13318V6.00008C8.13318 6.38906 7.97866 6.76211 7.7036 7.03717C7.42855 7.31222 7.0555 7.46674 6.66651 7.46674C6.27753 7.46674 5.90448 7.31222 5.62942 7.03717C5.35437 6.76211 5.19985 6.38906 5.19985 6.00008V4.00008H2.53318C2.37453 3.99827 2.21713 4.0283 2.07028 4.08838C1.92344 4.14847 1.79013 4.23739 1.67825 4.34989C1.56638 4.4624 1.47819 4.59619 1.41892 4.74336C1.35965 4.89054 1.33049 5.0481 1.33318 5.20674V20.1267C1.33053 20.2826 1.35861 20.4374 1.41581 20.5824C1.47301 20.7274 1.55821 20.8597 1.66655 20.9718C1.77489 21.0838 1.90425 21.1734 2.04722 21.2355C2.1902 21.2975 2.344 21.3308 2.49985 21.3334H21.4998C21.6557 21.3308 21.8095 21.2975 21.9525 21.2355C22.0954 21.1734 22.2248 21.0838 22.3331 20.9718C22.4415 20.8597 22.5267 20.7274 22.5839 20.5824C22.6411 20.4374 22.6692 20.2826 22.6665 20.1267V8.22674C21.8692 8.73279 20.9442 9.00105 19.9998 9.00008ZM6.66651 17.3334H5.33318V16.0001H6.66651V17.3334ZM6.66651 14.0001H5.33318V12.6667H6.66651V14.0001ZM6.66651 10.6667H5.33318V9.33341H6.66651V10.6667ZM10.6665 17.3334H9.33318V16.0001H10.6665V17.3334ZM10.6665 14.0001H9.33318V12.6667H10.6665V14.0001ZM10.6665 10.6667H9.33318V9.33341H10.6665V10.6667ZM14.6665 17.3334H13.3332V16.0001H14.6665V17.3334ZM14.6665 14.0001H13.3332V12.6667H14.6665V14.0001ZM14.6665 10.6667H13.3332V9.33341H14.6665V10.6667ZM18.6665 17.3334H17.3332V16.0001H18.6665V17.3334ZM18.6665 14.0001H17.3332V12.6667H18.6665V14.0001ZM18.6665 10.6667H17.3332V9.33341H18.6665V10.6667Z" fill="#022D69"/>
<path d="M19.9998 7.33366C21.8408 7.33366 23.3332 5.84127 23.3332 4.00033C23.3332 2.15938 21.8408 0.666992 19.9998 0.666992C18.1589 0.666992 16.6665 2.15938 16.6665 4.00033C16.6665 5.84127 18.1589 7.33366 19.9998 7.33366Z" fill="#022D69"/>
</g>
<defs>
<clipPath id="clip0_124_1387">
<rect width="24" height="24" fill="white"/>
</clipPath>
</defs>
</svg>
