<svg width="13" height="12" viewBox="0 0 13 12" fill="none" xmlns="http://www.w3.org/2000/svg">
<path d="M12.7252 5.55476L1.72519 0.054759C1.63897 0.0116424 1.54213 -0.0056335 1.44633 0.00501157C1.35052 0.0156566 1.25983 0.0537688 1.18519 0.114759C1.1139 0.174505 1.06069 0.252952 1.03154 0.341281C1.00239 0.42961 0.99846 0.524318 1.02019 0.614759L2.34519 5.49976H8.00019V6.49976H2.34519L1.00019 11.3698C0.9798 11.4453 0.97742 11.5245 0.993238 11.6012C1.00906 11.6778 1.04263 11.7496 1.09127 11.8109C1.1399 11.8722 1.20223 11.9212 1.27325 11.954C1.34427 11.9868 1.422 12.0025 1.50019 11.9998C1.57846 11.9993 1.65553 11.9805 1.72519 11.9448L12.7252 6.44476C12.8071 6.4028 12.8758 6.33905 12.9238 6.26054C12.9718 6.18202 12.9972 6.09178 12.9972 5.99976C12.9972 5.90774 12.9718 5.8175 12.9238 5.73898C12.8758 5.66047 12.8071 5.59672 12.7252 5.55476Z" fill="#022D69"/>
</svg>
