<svg width="20" height="22" viewBox="0 0 20 22" fill="none" xmlns="http://www.w3.org/2000/svg">
<path fill-rule="evenodd" clip-rule="evenodd" d="M10.0001 0.485352C9.34208 0.485352 8.77008 0.906352 7.62708 1.74935L5.90608 3.01835C5.72608 3.15135 5.63608 3.21735 5.53908 3.27335C5.44208 3.32935 5.33908 3.37335 5.13408 3.46335L3.17508 4.31935C1.87308 4.88935 1.22208 5.17335 0.893078 5.74235C0.564078 6.31135 0.643079 7.01835 0.802079 8.43035L1.04008 10.5554C1.06508 10.7774 1.07708 10.8884 1.07708 11.0004C1.07708 11.1124 1.06508 11.2234 1.04008 11.4454L0.802079 13.5704C0.644079 14.9824 0.565078 15.6884 0.893078 16.2584C1.22308 16.8284 1.87308 17.1124 3.17508 17.6814L5.13508 18.5374C5.33908 18.6274 5.44208 18.6714 5.53908 18.7274C5.63508 18.7833 5.72608 18.8494 5.90608 18.9824L7.62608 20.2514C8.77108 21.0944 9.34308 21.5154 10.0001 21.5154C10.6571 21.5154 11.2301 21.0944 12.3731 20.2514L14.0941 18.9824C14.2741 18.8494 14.3641 18.7833 14.4611 18.7274C14.5581 18.6714 14.6611 18.6274 14.8661 18.5374L16.8251 17.6814C18.1271 17.1114 18.7781 16.8274 19.1071 16.2584C19.4361 15.6894 19.3571 14.9824 19.1971 13.5704L18.9601 11.4454C18.9351 11.2234 18.9221 11.1124 18.9221 11.0004C18.9221 10.8884 18.9351 10.7774 18.9601 10.5554L19.1981 8.43035C19.3561 7.01835 19.4351 6.31235 19.1071 5.74235C18.7771 5.17235 18.1271 4.88835 16.8251 4.31935L14.8651 3.46335C14.727 3.40759 14.5921 3.34416 14.4611 3.27335C14.3341 3.19526 14.2116 3.11012 14.0941 3.01835L12.3741 1.74935C11.2281 0.906352 10.6561 0.485352 10.0001 0.485352ZM10.0001 15.0004C11.0609 15.0004 12.0784 14.5789 12.8285 13.8288C13.5787 13.0786 14.0001 12.0612 14.0001 11.0004C14.0001 9.93949 13.5787 8.92207 12.8285 8.17192C12.0784 7.42178 11.0609 7.00035 10.0001 7.00035C8.93921 7.00035 7.9218 7.42178 7.17165 8.17192C6.42151 8.92207 6.00008 9.93949 6.00008 11.0004C6.00008 12.0612 6.42151 13.0786 7.17165 13.8288C7.9218 14.5789 8.93921 15.0004 10.0001 15.0004Z" fill="#022D69"/>
</svg>
