<svg width="24" height="24" viewBox="0 0 24 24" fill="none" xmlns="http://www.w3.org/2000/svg">
<path d="M20.7494 11.9997L21.8534 10.0917C21.9861 9.86213 22.0221 9.58928 21.9537 9.33312C21.8853 9.07696 21.7179 8.85847 21.4884 8.72569L19.5784 7.62169V5.42169C19.5784 5.15647 19.473 4.90212 19.2855 4.71458C19.0979 4.52705 18.8436 4.42169 18.5784 4.42169H16.3794L15.2764 2.51269C15.1438 2.28302 14.9255 2.1154 14.6694 2.04669C14.5425 2.01269 14.4102 2.00403 14.2799 2.02118C14.1497 2.03834 14.0241 2.08099 13.9104 2.14669L12.0004 3.25069L10.0904 2.14569C9.86069 2.01309 9.58775 1.97715 9.33157 2.04579C9.0754 2.11443 8.85698 2.28202 8.72437 2.51169L7.62037 4.42169H5.42137C5.15616 4.42169 4.9018 4.52705 4.71427 4.71458C4.52673 4.90212 4.42137 5.15647 4.42137 5.42169V7.62069L2.51137 8.72469C2.3976 8.79044 2.2979 8.87796 2.21798 8.98226C2.13805 9.08656 2.07946 9.20559 2.04557 9.33255C2.01167 9.4595 2.00312 9.59189 2.02042 9.72215C2.03772 9.85241 2.08052 9.97798 2.14637 10.0917L3.25037 11.9997L2.14637 13.9077C2.01436 14.1375 1.97854 14.4101 2.04673 14.6662C2.11492 14.9223 2.28158 15.141 2.51037 15.2747L4.42037 16.3787V18.5777C4.42037 18.8429 4.52573 19.0973 4.71327 19.2848C4.9008 19.4723 5.15516 19.5777 5.42037 19.5777H7.62037L8.72437 21.4877C8.8129 21.639 8.93931 21.7647 9.09115 21.8524C9.24299 21.9401 9.41504 21.9867 9.59037 21.9877C9.76437 21.9877 9.93737 21.9417 10.0914 21.8527L11.9994 20.7487L13.9094 21.8527C14.1389 21.9854 14.4118 22.0215 14.6679 21.953C14.9241 21.8846 15.1426 21.7172 15.2754 21.4877L16.3784 19.5777H18.5774C18.8426 19.5777 19.0969 19.4723 19.2845 19.2848C19.472 19.0973 19.5774 18.8429 19.5774 18.5777V16.3787L21.4874 15.2747C21.6011 15.2089 21.7008 15.1214 21.7808 15.0171C21.8607 14.9128 21.9193 14.7938 21.9532 14.6668C21.9871 14.5399 21.9956 14.4075 21.9783 14.2772C21.961 14.147 21.9182 14.0214 21.8524 13.9077L20.7494 11.9997ZM9.49937 6.98969C9.89733 6.98982 10.2789 7.14804 10.5602 7.42953C10.8415 7.71102 10.9995 8.09273 10.9994 8.49069C10.9992 8.88865 10.841 9.27025 10.5595 9.55156C10.278 9.83286 9.89633 9.99082 9.49837 9.99069C9.10042 9.99056 8.71881 9.83234 8.43751 9.55085C8.1562 9.26936 7.99824 8.88765 7.99837 8.48969C7.99851 8.09173 8.15672 7.71013 8.43821 7.42882C8.7197 7.14752 9.10141 6.98956 9.49937 6.98969ZM9.79937 16.5897L8.19937 15.3907L14.1994 7.39069L15.7994 8.58969L9.79937 16.5897ZM14.4994 16.9897C14.3023 16.9896 14.1072 16.9507 13.9252 16.8753C13.7432 16.7998 13.5778 16.6892 13.4385 16.5499C13.2992 16.4105 13.1887 16.245 13.1134 16.0629C13.0381 15.8809 12.9993 15.6857 12.9994 15.4887C12.9994 15.2916 13.0383 15.0965 13.1138 14.9145C13.1893 14.7325 13.2998 14.5671 13.4392 14.4278C13.5786 14.2885 13.744 14.1781 13.9261 14.1027C14.1082 14.0274 14.3033 13.9886 14.5004 13.9887C14.8983 13.9888 15.2799 14.147 15.5612 14.4285C15.8425 14.71 16.0005 15.0917 16.0004 15.4897C16.0002 15.8876 15.842 16.2693 15.5605 16.5506C15.279 16.8319 14.8973 16.9898 14.4994 16.9897Z" fill="#022D69"/>
</svg>
