<svg width="29" height="29" viewBox="0 0 29 29" fill="none" xmlns="http://www.w3.org/2000/svg">
<path d="M10.6835 25.375C7.75183 25.375 5.01897 24.5223 2.71875 23.051C4.67171 23.1774 8.11825 22.8747 10.262 20.83C7.0371 20.682 5.58274 18.2086 5.39304 17.1517C5.66704 17.2574 6.97387 17.3842 7.71159 17.0883C4.00191 16.1581 3.43281 12.9026 3.55928 11.909C4.25484 12.3952 5.43519 12.5643 5.8989 12.522C2.44215 10.0487 3.68575 6.32813 4.29699 5.52482C6.77768 8.96161 10.4955 10.8919 15.0949 10.9992C15.0081 10.6189 14.9624 10.2229 14.9624 9.81614C14.9624 6.8974 17.3215 4.53125 20.2318 4.53125C21.7523 4.53125 23.1224 5.17718 24.0842 6.21039C25.1003 5.97229 26.6295 5.41491 27.3771 4.9329C27.0003 6.28585 25.8271 7.41448 25.1175 7.83279C25.1117 7.8185 25.1234 7.84702 25.1175 7.83279C25.7409 7.7385 27.4275 7.41437 28.0938 6.96232C27.7642 7.72238 26.5205 8.98613 25.4998 9.69361C25.6897 18.0689 19.2818 25.375 10.6835 25.375Z" fill="#47ACDF"/>
</svg>
