<svg width="26" height="17" viewBox="0 0 26 17" fill="none" xmlns="http://www.w3.org/2000/svg">
<path fill-rule="evenodd" clip-rule="evenodd" d="M15.6644 0.254894C12.6108 -0.0658612 9.53322 -0.0896409 6.47499 0.183888L4.43261 0.365921C3.61306 0.439423 2.84219 0.786945 2.24441 1.35239C1.64664 1.91784 1.25684 2.66822 1.13794 3.48243C0.652261 6.80419 0.652261 10.1789 1.13794 13.5007C1.25712 14.315 1.64717 15.0654 2.24516 15.6308C2.84315 16.1963 3.6142 16.5437 4.4339 16.6172L6.47628 16.7979C9.53447 17.0719 12.612 17.0486 15.6657 16.7282L16.4506 16.6456C17.2298 16.5639 17.9624 16.2351 18.5415 15.7074C19.1205 15.1797 19.5156 14.4807 19.6691 13.7124L23.6029 15.8013C23.7441 15.8763 23.9017 15.9152 24.0616 15.9144C24.2215 15.9137 24.3788 15.8733 24.5193 15.797C24.6598 15.7207 24.7792 15.6107 24.8669 15.477C24.9546 15.3432 25.0077 15.1898 25.0217 15.0305L25.054 14.6639C25.414 10.5564 25.414 6.42538 25.054 2.31793L25.0217 1.95128C25.0076 1.7919 24.9543 1.63849 24.8665 1.50475C24.7787 1.37101 24.6591 1.26111 24.5184 1.18489C24.3777 1.10867 24.2204 1.0685 24.0604 1.06797C23.9004 1.06744 23.7427 1.10656 23.6016 1.18184L19.6691 3.2707C19.5156 2.50245 19.1205 1.80342 18.5415 1.27571C17.9624 0.747999 17.2298 0.419262 16.4506 0.337519L15.6644 0.254894ZM6.64799 2.11266C9.5812 1.85044 12.5329 1.87336 15.4617 2.18109L16.2467 2.26371C16.6302 2.30432 16.9893 2.47136 17.2674 2.73851C17.5456 3.00567 17.727 3.35776 17.783 3.73934C18.2452 6.8907 18.2452 10.0911 17.783 13.2438C17.727 13.6253 17.5456 13.9774 17.2674 14.2446C16.9893 14.5118 16.6302 14.6788 16.2467 14.7194L15.4617 14.802C12.5329 15.1098 9.5812 15.1327 6.64799 14.8705L4.6056 14.6871C4.21961 14.6527 3.85646 14.4893 3.5747 14.2232C3.29294 13.9571 3.10899 13.6039 3.05251 13.2205C2.594 10.0846 2.594 6.89856 3.05251 3.76258C3.10851 3.37886 3.29227 3.02524 3.5741 2.75887C3.85592 2.49251 4.21934 2.32897 4.6056 2.29469L6.64799 2.11266ZM19.9222 5.32857C20.1145 7.43293 20.1145 9.55019 19.9222 11.6545L23.2104 13.4013C23.4445 10.1323 23.4445 6.8508 23.2104 3.58183L19.9222 5.32857Z" fill="#022D69"/>
</svg>
